<?xml version="1.0" encoding="utf-8"?>
<!-- Generator: Adobe Illustrator 16.0.0, SVG Export Plug-In . SVG Version: 6.00 Build 0)  -->
<!DOCTYPE svg PUBLIC "-//W3C//DTD SVG 1.1//EN" "http://www.w3.org/Graphics/SVG/1.1/DTD/svg11.dtd">
<svg version="1.1" id="Layer_1" xmlns="http://www.w3.org/2000/svg" xmlns:xlink="http://www.w3.org/1999/xlink" x="0px" y="0px"
	 width="226.899px" height="237.319px" viewBox="0 0 226.899 237.319" enable-background="new 0 0 226.899 237.319"
	 xml:space="preserve">
<circle fill="#2D64FD" cx="19.404" cy="21.795" r="19.404"/>
<circle fill="#2D64FD" cx="22.768" cy="100.965" r="19.404"/>
<circle fill="#2D64FD" cx="106.854" cy="123.992" r="19.405"/>
<circle fill="#2D64FD" cx="42.171" cy="200.574" r="19.405"/>
<circle fill="#2D64FD" cx="199.993" cy="136.41" r="19.405"/>
<circle fill="#05FFBE" cx="184.21" cy="213.508" r="19.405"/>
<circle fill="#2D64FD" cx="184.21" cy="64.224" r="19.405"/>
<path fill="#2D64FD" d="M66.631,103.55c0-6.43,5.215-11.643,11.643-11.643c6.429,0,11.644,5.213,11.644,11.643
	c0,6.432-5.215,11.644-11.644,11.644C71.846,115.193,66.631,109.981,66.631,103.55z"/>
<circle fill="#05FFBE" cx="52.919" cy="14.807" r="11.643"/>
<circle fill="#05FFBE" cx="49.932" cy="81.56" r="11.643"/>
<circle fill="#05FFBE" cx="33.257" cy="53.772" r="11.643"/>
<circle fill="#05FFBE" cx="64.563" cy="128.646" r="11.643"/>
<circle fill="#05FFBE" cx="11.643" cy="175.994" r="11.643"/>
<circle fill="#05FFBE" cx="175.273" cy="181.168" r="11.643"/>
<circle fill="#05FFBE" cx="215.257" cy="199.281" r="11.643"/>
<circle fill="#05FFBE" cx="215.257" cy="176.252" r="8.797"/>
<circle fill="#05FFBE" cx="122.115" cy="99.831" r="8.797"/>
<circle fill="#05FFBE" cx="135.055" cy="136.408" r="8.797"/>
<circle fill="#05FFBE" cx="197.663" cy="166.682" r="8.797"/>
<path fill="#05FFBE" d="M169.192,159.695c0-4.857,3.94-8.797,8.797-8.797s8.798,3.939,8.798,8.797c0,4.861-3.941,8.799-8.798,8.799
	S169.192,164.557,169.192,159.695z"/>
<circle fill="#05FFBE" cx="44.9" cy="120.272" r="8.797"/>
<path fill="#05FFBE" d="M12.16,134.855c0-4.857,3.94-8.797,8.797-8.797c4.857,0,8.797,3.939,8.797,8.797
	c0,4.861-3.94,8.799-8.797,8.799C16.101,143.654,12.16,139.717,12.16,134.855z"/>
<circle fill="#05FFBE" cx="55.765" cy="104.587" r="8.797"/>
<path fill="#05FFBE" d="M41.135,147.295c0-4.857,3.94-8.797,8.797-8.797s8.797,3.939,8.797,8.797c0,4.861-3.94,8.799-8.797,8.799
	S41.135,152.156,41.135,147.295z"/>
<circle fill="#05FFBE" cx="12.16" cy="70.954" r="8.797"/>
<circle fill="#05FFBE" cx="10.607" cy="51.194" r="8.797"/>
<circle fill="#05FFBE" cx="12.16" cy="199.281" r="8.797"/>
<path fill="#05FFBE" d="M177.991,103.549c0-6.429,5.215-11.643,11.642-11.643c6.428,0,11.644,5.214,11.644,11.643
	c0,6.432-5.216,11.644-11.644,11.644C183.206,115.193,177.991,109.981,177.991,103.549z"/>
<path fill="#05FFBE" d="M153.164,108.629c0-6.429,5.215-11.643,11.643-11.643s11.643,5.214,11.643,11.643
	c0,6.433-5.215,11.645-11.643,11.645S153.164,115.062,153.164,108.629z"/>
<circle fill="#05FFBE" cx="210.599" cy="42.396" r="11.642"/>
<circle fill="#2D64FD" cx="210.599" cy="14.807" r="11.642"/>
<circle fill="#2D64FD" cx="211.636" cy="85.956" r="11.643"/>
<circle fill="#05FFBE" cx="175.273" cy="12.643" r="11.643"/>
<circle fill="#2D64FD" cx="15.007" cy="221.27" r="11.643"/>
<path fill="#2D64FD" d="M17.075,155.039c0-6.43,5.215-11.643,11.642-11.643c6.43,0,11.645,5.213,11.645,11.643
	s-5.215,11.643-11.645,11.643C22.29,166.682,17.075,161.469,17.075,155.039z"/>
<circle fill="#2D64FD" cx="83.051" cy="137.703" r="6.221"/>
<circle fill="#05FFBE" cx="98.574" cy="97.6" r="6.221"/>
<circle fill="#05FFBE" cx="148.521" cy="96.987" r="6.221"/>
<circle fill="#05FFBE" cx="171.771" cy="87.781" r="6.221"/>
<circle fill="#05FFBE" cx="193.008" cy="23.099" r="6.221"/>
<circle fill="#05FFBE" cx="190.432" cy="36.974" r="6.221"/>
<circle fill="#05FFBE" cx="213.355" cy="63.697" r="6.221"/>
<circle fill="#05FFBE" cx="209.833" cy="110.041" r="6.221"/>
<circle fill="#05FFBE" cx="173.694" cy="125.623" r="6.221"/>
<circle fill="#05FFBE" cx="171.771" cy="141.076" r="6.221"/>
<circle fill="#05FFBE" cx="215.257" cy="159.695" r="6.221"/>
<circle fill="#05FFBE" cx="46.968" cy="36.974" r="6.221"/>
<circle fill="#05FFBE" cx="29.755" cy="73.532" r="6.221"/>
<circle fill="#05FFBE" cx="53.189" cy="59.992" r="6.221"/>
<circle fill="#05FFBE" cx="8.031" cy="123.992" r="6.221"/>
<circle fill="#05FFBE" cx="37.266" cy="136.41" r="6.221"/>
<circle fill="#05FFBE" cx="9.584" cy="151.428" r="6.221"/>
<circle fill="#05FFBE" cx="32.068" cy="174.949" r="6.221"/>
<circle fill="#05FFBE" cx="39.477" cy="227.49" r="6.221"/>
<circle fill="#05FFBE" cx="55.766" cy="227.49" r="6.221"/>
<circle fill="#2D64FD" cx="195.854" cy="185.051" r="6.221"/>
<circle fill="#2D64FD" cx="137.642" cy="111.385" r="8.889"/>
<circle fill="#2D64FD" cx="173.693" cy="35.336" r="8.889"/>
<circle fill="#2D64FD" cx="213.354" cy="224.025" r="8.889"/>
<path fill="#2D64FD" d="M145.851,134.508c0-4.906,3.979-8.885,8.889-8.885c4.908,0,8.89,3.979,8.89,8.885
	c0,4.91-3.981,8.889-8.89,8.889C149.83,143.396,145.851,139.418,145.851,134.508z"/>
<circle fill="#05FFBE" cx="49.932" cy="169.525" r="11.643"/>
</svg>
